<svg width="64" height="64" viewBox="0 0 64 64" fill="none" xmlns="http://www.w3.org/2000/svg">
<rect x="0.895752" y="0.870239" width="62.2595" height="62.2595" rx="5.15394" fill="#4786FF"/>
<path d="M26.6778 16.9549C35.0902 18.8569 39.6152 24.6052 39.5829 33.167C39.5652 37.8648 39.5797 42.5626 39.5797 47.3424C37.5595 47.3424 35.6538 47.3424 33.547 47.3424C33.547 46.1948 33.5471 45.0561 33.547 43.9175C33.5467 39.918 33.5878 35.918 33.5351 31.9193C33.4751 27.3707 29.9784 23.4452 25.626 22.9331C20.765 22.3611 16.5164 25.1436 15.3136 29.6868C14.1091 34.2366 16.3505 38.8179 20.6848 40.6421C21.1332 40.8308 21.6094 40.9533 22.2326 41.1594C22.2326 38.0876 22.2326 35.1807 22.2326 32.1861C24.0481 32.1861 25.7408 32.1861 27.5099 32.1861C27.5099 37.2052 27.5099 42.2035 27.5098 47.202C18.3861 48.698 11.1775 43.2513 9.33878 35.4762C7.41933 27.3598 12.6535 18.9726 20.8181 17.2296C22.6637 16.8356 24.6322 17.0174 26.6778 16.9549Z" fill="white"/>
<path d="M54.8949 44.8073C54.8949 45.7055 54.8949 46.4584 54.8949 47.3211C52.8914 47.3211 50.9535 47.3211 48.8464 47.3211C48.8464 46.2882 48.844 45.2916 48.8468 44.2951C48.8584 40.1451 48.8779 35.9951 48.8826 31.8451C48.8898 25.4562 44.5846 19.6063 38.3622 17.5345C37.9907 17.4108 37.6187 17.2887 37.1357 17.1291C44.5493 15.322 52.743 20.7671 54.5094 28.6032C54.7738 29.7762 54.8767 31.0063 54.8888 32.2117C54.9304 36.3614 54.8987 40.5119 54.8949 44.8073Z" fill="white"/>
</svg>
