<svg width="222" height="64" viewBox="0 0 222 64" fill="none" xmlns="http://www.w3.org/2000/svg">
<rect x="0.895752" y="0.870239" width="62.2595" height="62.2595" rx="5.15394" fill="#4786FF"/>
<path d="M26.6778 16.9549C35.0902 18.8569 39.6152 24.6052 39.5829 33.167C39.5652 37.8648 39.5797 42.5626 39.5797 47.3424C37.5595 47.3424 35.6538 47.3424 33.547 47.3424C33.547 46.1948 33.5471 45.0561 33.547 43.9175C33.5467 39.918 33.5878 35.918 33.5351 31.9193C33.4751 27.3707 29.9784 23.4452 25.626 22.9331C20.765 22.3611 16.5164 25.1436 15.3136 29.6868C14.1091 34.2366 16.3505 38.8179 20.6848 40.6421C21.1332 40.8308 21.6094 40.9533 22.2326 41.1594C22.2326 38.0876 22.2326 35.1807 22.2326 32.1861C24.0481 32.1861 25.7408 32.1861 27.5099 32.1861C27.5099 37.2052 27.5099 42.2035 27.5098 47.202C18.3861 48.698 11.1775 43.2513 9.33878 35.4762C7.41933 27.3598 12.6535 18.9726 20.8181 17.2296C22.6637 16.8356 24.6322 17.0174 26.6778 16.9549Z" fill="white"/>
<path d="M54.8949 44.8073C54.8949 45.7055 54.8949 46.4584 54.8949 47.3211C52.8914 47.3211 50.9535 47.3211 48.8464 47.3211C48.8464 46.2882 48.844 45.2916 48.8468 44.2951C48.8584 40.1451 48.8779 35.9951 48.8826 31.8451C48.8898 25.4562 44.5846 19.6063 38.3622 17.5345C37.9907 17.4108 37.6187 17.2887 37.1357 17.1291C44.5493 15.322 52.743 20.7671 54.5094 28.6032C54.7738 29.7762 54.8767 31.0063 54.8888 32.2117C54.9304 36.3614 54.8987 40.5119 54.8949 44.8073Z" fill="white"/>
<path d="M95.4644 18.1282C94.9928 17.2594 94.3102 16.6017 93.4166 16.1549C92.5478 15.6832 91.5177 15.4474 90.3262 15.4474C88.266 15.4474 86.6154 16.13 85.3743 17.4953C84.1332 18.8356 83.5126 20.6352 83.5126 22.894C83.5126 25.3017 84.158 27.1882 85.4487 28.5534C86.7643 29.8938 88.5639 30.564 90.8475 30.564C92.4113 30.564 93.7269 30.1668 94.7942 29.3725C95.8864 28.5782 96.6807 27.4364 97.1771 25.9471H89.0976V21.2558H102.948V27.1758C102.477 28.7644 101.67 30.2413 100.528 31.6065C99.4111 32.9717 97.9838 34.0763 96.2463 34.9202C94.5087 35.7642 92.5478 36.1862 90.3635 36.1862C87.782 36.1862 85.4736 35.6277 83.4382 34.5107C81.4276 33.3689 79.8514 31.7927 78.7096 29.7821C77.5926 27.7715 77.0341 25.4755 77.0341 22.894C77.0341 20.3125 77.5926 18.0165 78.7096 16.0059C79.8514 13.9705 81.4276 12.3943 83.4382 11.2774C85.4487 10.1355 87.7448 9.56464 90.3262 9.56464C93.4538 9.56464 96.0849 10.3217 98.2196 11.8358C100.379 13.35 101.806 15.4474 102.501 18.1282H95.4644ZM109.677 13.0645C108.56 13.0645 107.641 12.7419 106.922 12.0965C106.227 11.4263 105.879 10.6072 105.879 9.63911C105.879 8.64623 106.227 7.82711 106.922 7.18174C107.641 6.51155 108.56 6.17645 109.677 6.17645C110.769 6.17645 111.663 6.51155 112.358 7.18174C113.077 7.82711 113.437 8.64623 113.437 9.63911C113.437 10.6072 113.077 11.4263 112.358 12.0965C111.663 12.7419 110.769 13.0645 109.677 13.0645ZM112.842 15.224V36H106.475V15.224H112.842ZM123.822 18.6867C124.567 17.5449 125.498 16.6513 126.615 16.0059C127.732 15.3357 128.973 15.0006 130.338 15.0006V21.7398H128.588C127 21.7398 125.808 22.0873 125.014 22.7823C124.22 23.4525 123.822 24.644 123.822 26.3567V36H117.456V15.224H123.822V18.6867ZM159.891 15.0006C162.473 15.0006 164.521 15.7825 166.035 17.3463C167.574 18.9101 168.343 21.082 168.343 23.8621V36H162.014V24.7184C162.014 23.378 161.654 22.3479 160.934 21.6281C160.239 20.8834 159.271 20.5111 158.03 20.5111C156.789 20.5111 155.808 20.8834 155.088 21.6281C154.393 22.3479 154.046 23.378 154.046 24.7184V36H147.716V24.7184C147.716 23.378 147.356 22.3479 146.636 21.6281C145.941 20.8834 144.973 20.5111 143.732 20.5111C142.491 20.5111 141.511 20.8834 140.791 21.6281C140.096 22.3479 139.748 23.378 139.748 24.7184V36H133.381V15.224H139.748V17.8303C140.394 16.9616 141.238 16.279 142.28 15.7825C143.323 15.2613 144.502 15.0006 145.817 15.0006C147.381 15.0006 148.771 15.3357 149.987 16.0059C151.228 16.6761 152.196 17.6318 152.891 18.8729C153.611 17.7311 154.592 16.8002 155.833 16.0804C157.074 15.3606 158.427 15.0006 159.891 15.0006ZM171.53 25.5748C171.53 23.4401 171.927 21.566 172.721 19.9526C173.541 18.3392 174.645 17.0981 176.035 16.2293C177.425 15.3606 178.977 14.9262 180.689 14.9262C182.154 14.9262 183.432 15.224 184.524 15.8198C185.641 16.4155 186.498 17.1974 187.093 18.1654V15.224H193.46V36H187.093V33.0586C186.473 34.0267 185.604 34.8085 184.487 35.4043C183.395 36 182.117 36.2979 180.652 36.2979C178.964 36.2979 177.425 35.8635 176.035 34.9947C174.645 34.1011 173.541 32.8476 172.721 31.2342C171.927 29.5959 171.53 27.7095 171.53 25.5748ZM187.093 25.612C187.093 24.0234 186.647 22.7699 185.753 21.8515C184.884 20.9331 183.817 20.4739 182.551 20.4739C181.285 20.4739 180.205 20.9331 179.312 21.8515C178.443 22.7451 178.009 23.9862 178.009 25.5748C178.009 27.1634 178.443 28.4293 179.312 29.3725C180.205 30.291 181.285 30.7502 182.551 30.7502C183.817 30.7502 184.884 30.291 185.753 29.3725C186.647 28.4541 187.093 27.2006 187.093 25.612ZM210.726 15.0006C213.158 15.0006 215.094 15.7949 216.534 17.3836C217.998 18.9473 218.731 21.1068 218.731 23.8621V36H212.401V24.7184C212.401 23.3284 212.041 22.2486 211.321 21.4792C210.601 20.7097 209.633 20.3249 208.417 20.3249C207.201 20.3249 206.233 20.7097 205.513 21.4792C204.793 22.2486 204.433 23.3284 204.433 24.7184V36H198.066V15.224H204.433V17.9793C205.079 17.0609 205.947 16.341 207.039 15.8198C208.132 15.2737 209.36 15.0006 210.726 15.0006Z" fill="#111111"/>
<path d="M87.4224 49.1513V50.422H85.331V57H83.7567V50.422H81.6652V49.1513H87.4224ZM94.6431 50.422V52.3898H97.2855V53.6379H94.6431V55.7181H97.6229V57H93.0688V49.1401H97.6229V50.422H94.6431ZM103.169 53.0644C103.169 52.2923 103.341 51.6026 103.686 50.9954C104.039 50.3807 104.515 49.9047 105.114 49.5674C105.721 49.2225 106.4 49.0501 107.15 49.0501C108.027 49.0501 108.795 49.275 109.455 49.7248C110.114 50.1746 110.575 50.7968 110.838 51.5914H109.027C108.847 51.2166 108.593 50.9355 108.263 50.7481C107.94 50.5606 107.566 50.4669 107.138 50.4669C106.681 50.4669 106.272 50.5756 105.913 50.793C105.56 51.0029 105.283 51.3028 105.081 51.6926C104.886 52.0824 104.788 52.5397 104.788 53.0644C104.788 53.5817 104.886 54.0389 105.081 54.4363C105.283 54.8261 105.56 55.1297 105.913 55.3471C106.272 55.557 106.681 55.6619 107.138 55.6619C107.566 55.6619 107.94 55.5682 108.263 55.3808C108.593 55.1859 108.847 54.901 109.027 54.5262H110.838C110.575 55.3283 110.114 55.9543 109.455 56.404C108.802 56.8463 108.034 57.0675 107.15 57.0675C106.4 57.0675 105.721 56.8988 105.114 56.5615C104.515 56.2166 104.039 55.7406 103.686 55.1334C103.341 54.5262 103.169 53.8365 103.169 53.0644ZM123.191 49.1513V57H121.616V53.6604H118.254V57H116.68V49.1513H118.254V52.3785H121.616V49.1513H123.191ZM135.951 57H134.377L130.812 51.6139V57H129.238V49.1401H130.812L134.377 54.5375V49.1401H135.951V57ZM145.648 57.0787C144.913 57.0787 144.238 56.9063 143.624 56.5615C143.009 56.2166 142.522 55.7406 142.162 55.1334C141.802 54.5187 141.622 53.8253 141.622 53.0532C141.622 52.2886 141.802 51.6026 142.162 50.9954C142.522 50.3807 143.009 49.901 143.624 49.5561C144.238 49.2113 144.913 49.0389 145.648 49.0389C146.39 49.0389 147.064 49.2113 147.672 49.5561C148.286 49.901 148.77 50.3807 149.122 50.9954C149.482 51.6026 149.662 52.2886 149.662 53.0532C149.662 53.8253 149.482 54.5187 149.122 55.1334C148.77 55.7406 148.286 56.2166 147.672 56.5615C147.057 56.9063 146.382 57.0787 145.648 57.0787ZM145.648 55.6731C146.12 55.6731 146.536 55.5682 146.896 55.3583C147.256 55.1409 147.537 54.8336 147.739 54.4363C147.942 54.0389 148.043 53.5779 148.043 53.0532C148.043 52.5284 147.942 52.0712 147.739 51.6813C147.537 51.284 147.256 50.9804 146.896 50.7705C146.536 50.5606 146.12 50.4557 145.648 50.4557C145.175 50.4557 144.756 50.5606 144.388 50.7705C144.028 50.9804 143.747 51.284 143.545 51.6813C143.343 52.0712 143.241 52.5284 143.241 53.0532C143.241 53.5779 143.343 54.0389 143.545 54.4363C143.747 54.8336 144.028 55.1409 144.388 55.3583C144.756 55.5682 145.175 55.6731 145.648 55.6731ZM156.905 55.7519H159.491V57H155.331V49.1513H156.905V55.7519ZM168.633 57.0787C167.898 57.0787 167.224 56.9063 166.609 56.5615C165.994 56.2166 165.507 55.7406 165.147 55.1334C164.787 54.5187 164.607 53.8253 164.607 53.0532C164.607 52.2886 164.787 51.6026 165.147 50.9954C165.507 50.3807 165.994 49.901 166.609 49.5561C167.224 49.2113 167.898 49.0389 168.633 49.0389C169.375 49.0389 170.05 49.2113 170.657 49.5561C171.272 49.901 171.755 50.3807 172.108 50.9954C172.467 51.6026 172.647 52.2886 172.647 53.0532C172.647 53.8253 172.467 54.5187 172.108 55.1334C171.755 55.7406 171.272 56.2166 170.657 56.5615C170.042 56.9063 169.368 57.0787 168.633 57.0787ZM168.633 55.6731C169.105 55.6731 169.521 55.5682 169.881 55.3583C170.241 55.1409 170.522 54.8336 170.724 54.4363C170.927 54.0389 171.028 53.5779 171.028 53.0532C171.028 52.5284 170.927 52.0712 170.724 51.6813C170.522 51.284 170.241 50.9804 169.881 50.7705C169.521 50.5606 169.105 50.4557 168.633 50.4557C168.161 50.4557 167.741 50.5606 167.374 50.7705C167.014 50.9804 166.733 51.284 166.53 51.6813C166.328 52.0712 166.227 52.5284 166.227 53.0532C166.227 53.5779 166.328 54.0389 166.53 54.4363C166.733 54.8336 167.014 55.1409 167.374 55.3583C167.741 55.5682 168.161 55.6731 168.633 55.6731ZM183.781 51.5127C183.601 51.1828 183.354 50.9317 183.039 50.7593C182.724 50.5869 182.357 50.5007 181.937 50.5007C181.472 50.5007 181.06 50.6056 180.7 50.8155C180.34 51.0254 180.059 51.3253 179.857 51.7151C179.654 52.1049 179.553 52.5547 179.553 53.0644C179.553 53.5892 179.654 54.0464 179.857 54.4363C180.067 54.8261 180.355 55.1259 180.723 55.3358C181.09 55.5457 181.517 55.6507 182.004 55.6507C182.604 55.6507 183.095 55.4932 183.478 55.1784C183.86 54.856 184.111 54.41 184.231 53.8403H181.532V52.6371H185.783V54.009C185.678 54.5562 185.453 55.0622 185.108 55.527C184.763 55.9917 184.317 56.3666 183.77 56.6514C183.23 56.9288 182.623 57.0675 181.948 57.0675C181.191 57.0675 180.505 56.8988 179.891 56.5615C179.283 56.2166 178.804 55.7406 178.451 55.1334C178.106 54.5262 177.934 53.8365 177.934 53.0644C177.934 52.2923 178.106 51.6026 178.451 50.9954C178.804 50.3807 179.283 49.9047 179.891 49.5674C180.505 49.2225 181.187 49.0501 181.937 49.0501C182.822 49.0501 183.59 49.2675 184.242 49.7023C184.894 50.1296 185.344 50.7331 185.591 51.5127H183.781ZM193.019 49.1513V57H191.445V49.1513H193.019ZM200.647 50.422V52.3898H203.289V53.6379H200.647V55.7181H203.627V57H199.073V49.1401H203.627V50.422H200.647ZM212.265 57.0787C211.718 57.0787 211.223 56.985 210.781 56.7976C210.346 56.6102 210.001 56.3403 209.746 55.988C209.491 55.6357 209.36 55.2196 209.353 54.7399H211.039C211.062 55.0622 211.174 55.3171 211.377 55.5045C211.586 55.6919 211.871 55.7856 212.231 55.7856C212.598 55.7856 212.887 55.6994 213.097 55.527C213.307 55.3471 213.412 55.1147 213.412 54.8298C213.412 54.5974 213.341 54.4063 213.198 54.2563C213.056 54.1064 212.876 53.9902 212.658 53.9078C212.449 53.8178 212.156 53.7204 211.781 53.6154C211.272 53.4655 210.856 53.3193 210.533 53.1769C210.218 53.0269 209.945 52.8058 209.712 52.5134C209.487 52.2136 209.375 51.8163 209.375 51.3215C209.375 50.8567 209.491 50.4519 209.724 50.1071C209.956 49.7623 210.282 49.4999 210.702 49.32C211.122 49.1326 211.601 49.0389 212.141 49.0389C212.951 49.0389 213.607 49.2375 214.109 49.6348C214.619 50.0247 214.9 50.5719 214.952 51.2765H213.221C213.206 51.0067 213.089 50.7855 212.872 50.6131C212.662 50.4332 212.381 50.3433 212.029 50.3433C211.721 50.3433 211.474 50.422 211.287 50.5794C211.107 50.7368 211.017 50.9654 211.017 51.2653C211.017 51.4752 211.084 51.6514 211.219 51.7938C211.362 51.9287 211.534 52.0412 211.736 52.1311C211.946 52.2136 212.239 52.311 212.613 52.4235C213.123 52.5734 213.539 52.7233 213.862 52.8733C214.184 53.0232 214.461 53.2481 214.694 53.5479C214.926 53.8478 215.042 54.2413 215.042 54.7286C215.042 55.1484 214.934 55.5382 214.716 55.898C214.499 56.2579 214.18 56.5465 213.76 56.7639C213.341 56.9738 212.842 57.0787 212.265 57.0787Z" fill="#111111"/>
</svg>
